<?xml version="1.0" standalone="no"?><!DOCTYPE svg PUBLIC "-//W3C//DTD SVG 1.1//EN" "http://www.w3.org/Graphics/SVG/1.1/DTD/svg11.dtd"><svg t="1529896109265" class="icon" style="" viewBox="0 0 1024 1024" version="1.1" xmlns="http://www.w3.org/2000/svg" p-id="1251" xmlns:xlink="http://www.w3.org/1999/xlink" width="48" height="48"><defs><style type="text/css"></style></defs><path d="M176.056576 768c-15.36 0-29.184-4.096-40.96-12.8-17.92-13.312-28.672-38.4-31.744-74.24-9.216-98.816 36.864-260.608 142.848-378.88C453.048576 71.68 699.320576-13.824 999.352576 40.448c12.288 2.048 22.016 11.776 24.576 23.552 2.56 12.288-2.56 24.576-12.8 31.744-284.16 190.464-385.024 341.504-474.112 475.136-16.896 25.088-32.256 48.64-49.152 72.192-6.656 9.216-17.408 13.824-28.16 12.8-31.744-3.584-88.576 29.184-107.008 39.424l-1.024 0.512C280.504576 736.256 220.600576 768 176.056576 768z m-3.584-60.416z m-0.512-0.512c2.56 0.512 15.872 2.56 54.784-13.824 30.72-13.312 64.512-32.768 94.208-50.176l1.024-0.512c37.376-21.504 83.968-45.056 125.44-47.616 12.8-18.432 25.6-37.888 38.912-57.856C571.320576 409.6 667.064576 266.24 912.824576 89.6 669.112576 66.048 465.336576 148.992 291.256576 343.04c-134.656 150.016-139.776 339.456-119.296 364.032z" fill="#333333" p-id="1252"></path><path d="M30.648576 980.992c-4.096 0-8.192-1.024-12.288-2.56-15.36-6.656-22.528-24.576-15.872-39.936 155.648-358.4 485.888-620.032 500.224-630.784 13.312-10.24 32.256-8.192 43.008 5.12 10.24 13.312 8.192 32.256-5.12 43.008-3.072 2.56-332.288 263.168-481.792 607.232-5.12 11.264-16.384 17.92-28.16 17.92z" fill="#333333" p-id="1253"></path><path d="M331.192576 537.6h-1.536c-16.896-1.024-29.696-14.848-29.184-31.744l11.776-253.952c1.024-16.896 14.848-29.696 31.744-29.184 16.896 1.024 29.696 14.848 29.184 31.744l-11.776 253.952c-0.512 16.384-13.824 29.184-30.208 29.184zM905.656576 999.424c-3.584 0-7.68-0.512-11.264-2.048-44.032-17.92-68.608-46.592-88.064-69.12-23.04-26.624-35.84-41.984-71.68-40.448-31.232 1.024-50.688 20.992-72.704 44.544-27.648 28.672-61.952 64.512-120.32 51.712-47.616-10.24-71.68-39.936-91.648-63.488-20.992-25.6-35.328-42.496-74.24-42.496h-0.512c-68.096 0.512-142.336 62.464-165.376 86.528-11.776 12.288-30.72 12.8-43.008 1.024-12.288-11.776-12.8-30.72-1.024-43.008 4.096-4.096 101.376-104.448 208.896-104.96h1.024c67.584 0 97.28 35.84 121.344 64.512 17.408 20.992 30.72 37.376 57.856 43.008 23.04 5.12 35.84-5.632 63.488-34.304 26.112-27.136 58.88-61.44 114.688-63.488 65.536-2.56 94.208 31.744 120.32 61.44 17.92 20.48 34.304 39.936 65.024 52.736 15.36 6.144 23.04 24.064 16.896 39.936-6.144 10.752-17.408 17.92-29.696 17.92z" fill="#333333" p-id="1254"></path></svg>